<svg width="578" height="461" viewBox="0 0 578 461" fill="none" xmlns="http://www.w3.org/2000/svg">
<path d="M507.724 447.347L495.708 447.346L489.992 400.943L507.726 400.945L507.724 447.347Z" fill="#FFB6B6"/>
<path d="M508.147 459.897L471.196 459.896V459.428C471.197 451.476 477.636 445.029 485.578 445.029H485.579L492.329 439.902L504.922 445.03L508.147 445.03L508.147 459.897Z" fill="#2F2E41"/>
<path d="M454.453 447.347L442.438 447.346L436.722 400.943L454.456 400.945L454.453 447.347Z" fill="#FFB6B6"/>
<path d="M454.876 459.897L417.926 459.896V459.428C417.926 451.476 424.365 445.029 432.308 445.029H432.309L439.058 439.902L451.651 445.03L454.877 445.03L454.876 459.897Z" fill="#2F2E41"/>
<path d="M448.728 188.384L518.052 189.845C518.052 189.845 530.515 210.302 521 239.161L522.066 247.198L517.687 259.618L515.498 297.609L517.687 303.454L516.228 314.413C516.228 314.413 522.066 386.743 507.471 423.274L489.958 422.543L483.39 327.234L487.039 320.258L486.309 317.336L477.552 273.499L468.795 296.148V308.732L460.768 318.066C460.768 318.066 463.687 404.278 455.66 421.813H436.052L428.66 304.916L435.957 236.969L434.498 232.585L436.687 230.394L435.228 223.088L448.728 188.384L448.728 188.384Z" fill="#2F2E41"/>
<path d="M478.282 55.0481L499.444 49.9338L505.282 63.8154C505.282 63.8154 535.486 79.8887 536.945 101.807C536.945 101.807 541.039 119.341 537.39 127.378C533.741 135.415 518.417 160.986 518.417 160.986C518.417 160.986 532.282 205.553 528.633 207.745C524.985 209.937 438.146 205.553 438.146 201.169C438.146 196.786 452.599 150.758 452.599 150.758L455.66 71.852L475.363 64.546L478.282 55.0481L478.282 55.0481V55.0481Z" fill="#B43C25"/>
<path d="M534.699 234.898C530.269 232.663 528.488 227.257 530.72 222.822C530.944 222.376 531.209 221.964 531.493 221.573L519.718 140.741L536.02 141.263L544.548 220.021C547.639 222.646 548.664 227.13 546.76 230.914C544.528 235.349 539.128 237.132 534.699 234.898H534.699Z" fill="#FFB6B6"/>
<path d="M380.01 196.748C378.227 192.114 380.533 186.91 385.161 185.125C385.627 184.945 386.099 184.818 386.572 184.719L432.063 116.907L443.792 128.255L397.287 192.347C397.816 196.37 395.568 200.382 391.619 201.905C386.991 203.691 381.794 201.382 380.01 196.748V196.748Z" fill="#FFB6B6"/>
<path d="M504.992 120.353C500.386 104.509 508.036 88.3448 524.517 88.4229C529.281 88.4455 532.982 89.8294 534.008 93.6603C537.598 107.068 539.555 127.308 539.555 127.308L543.814 148.857L541.234 153.332L546.612 167.773L544.004 174.605L543.44 209.494L530.304 208.763L515.832 182.166L510.298 178.871C510.298 178.871 514.741 135.867 505.903 123.486L504.992 120.353H504.992V120.353Z" fill="#B43C25"/>
<path d="M446.157 81.3613C453.837 66.7615 473.501 63.3032 485.301 74.823C488.712 78.1526 490.414 81.7223 488.493 85.1912C481.772 97.3324 466.191 110.405 466.191 110.405L447.005 141.287L442.045 142.711L435.892 156.839L422.707 172.359L405.245 181.579L395.028 171.351L397.198 158.202L423.488 123.131C423.488 123.131 442.404 99.3018 444.638 84.248L446.157 81.3613V81.3613V81.3613Z" fill="#B43C25"/>
<path d="M482.303 50.7782C482.786 50.8364 483.268 50.88 483.747 50.9019C485.238 50.9838 486.712 50.8987 488.132 50.6576C492.446 49.9653 496.366 47.9193 499.391 44.9189C502.588 41.7529 504.776 37.5273 505.368 32.7166C506.754 21.3614 498.678 11.0176 487.336 9.63016C476.157 8.25455 465.967 16.0827 464.34 27.1772C464.315 27.349 464.288 27.5135 464.27 27.6845C462.885 39.0469 470.953 49.3842 482.303 50.7782V50.7782V50.7782Z" fill="#FFB6B6"/>
<path d="M459.677 26.417C462.615 27.8716 467.415 23.2986 469.254 25.9297C469.552 25.3611 469.882 24.8112 470.208 24.2912C470.503 23.8258 470.925 22.8325 471.413 22.6624C470.795 24.1545 470.932 26.1752 471.573 27.9065C474.471 28.9907 478.264 26.5908 480.946 23.7522C485.158 19.3013 492.036 30.7148 490.409 36.6214C492.479 34.0913 496.97 35.5183 498.491 38.4113C500.012 41.2971 497.442 43.6092 496.893 46.8281L501.042 46.3006C503.659 43.7482 503.476 39.4471 505.632 36.4888C509.232 31.538 510.627 26.4865 507.92 21.377C505.52 16.8592 505.295 11.0122 500.891 8.40751C502.815 7.46549 495.971 8.93716 497.8 5.86721C499.636 2.80371 489.849 2.43188 489.211 4.07313C486.414 0.722163 483.593 -1.4872 480.153 1.19789C476.775 3.83958 477.124 6.6163 473.156 6.36746C471.294 6.25196 471.499 9.72769 470.392 11.243C469.291 12.7503 465.014 13.7179 464.806 13.5566C463.676 12.6716 459.832 20.2058 459.832 20.2058C459.832 20.2058 456.715 24.943 459.677 26.417H459.677Z" fill="#2F2E41"/>
<path d="M200.736 157.919C270.253 157.919 326.608 214.341 326.608 283.942C326.608 353.543 270.253 409.965 200.736 409.965C131.218 409.965 35.0089 340.958 74.8633 283.942C114.718 226.925 131.218 157.919 200.736 157.919Z" fill="#E2E2E2"/>
<path d="M369.207 163.914C368.078 163.914 367.16 164.833 367.16 165.963V231.536C367.16 232.666 368.078 233.585 369.207 233.585C370.336 233.585 371.254 232.666 371.254 231.536V165.963C371.254 164.833 370.336 163.914 369.207 163.914Z" fill="#3F3D56"/>
<path d="M25.3602 114.734C24.2314 114.734 23.3135 115.653 23.3135 116.783V133.177C23.3135 134.307 24.2314 135.226 25.3602 135.226C26.489 135.226 27.4069 134.307 27.4069 133.177V116.783C27.4069 115.653 26.489 114.734 25.3602 114.734Z" fill="#9F9D9D"/>
<path d="M25.3602 163.914C24.2314 163.914 23.3135 164.833 23.3135 165.963V197.725C23.3135 198.855 24.2314 199.774 25.3602 199.774C26.489 199.774 27.4069 198.855 27.4069 197.725V165.963C27.4069 164.833 26.489 163.914 25.3602 163.914Z" fill="#9F9D9D"/>
<path d="M25.3602 208.995C24.2314 208.995 23.3135 209.914 23.3135 211.045V242.806C23.3135 243.937 24.2314 244.856 25.3602 244.856C26.489 244.856 27.4069 243.937 27.4069 242.806V211.045C27.4069 209.914 26.489 208.995 25.3602 208.995Z" fill="#9F9D9D"/>
<path d="M208.923 50.1855C207.794 50.1855 206.876 51.1046 206.876 52.2347V83.9967C206.876 85.1268 207.794 86.0458 208.923 86.0458C210.051 86.0458 210.969 85.1268 210.969 83.9967V52.2347C210.969 51.1046 210.051 50.1855 208.923 50.1855Z" fill="#9F9D9D"/>
<path d="M522.474 443.241C524.588 443.374 525.757 440.744 524.157 439.211L523.998 438.578C524.019 438.527 524.04 438.476 524.061 438.426C526.199 433.321 533.445 433.357 535.565 438.468C537.447 443.005 539.842 447.55 540.432 452.347C540.696 454.465 540.578 456.622 540.108 458.7C544.517 449.058 546.837 438.53 546.837 427.942C546.837 425.281 546.691 422.621 546.394 419.967C546.149 417.797 545.812 415.639 545.376 413.502C543.017 401.947 537.907 390.942 530.537 381.751C526.995 379.812 524.04 376.781 522.255 373.148C521.614 371.837 521.112 370.428 520.874 368.992C521.277 369.045 522.394 362.897 522.09 362.52C522.652 361.666 523.658 361.242 524.271 360.409C527.323 356.266 531.528 356.989 533.723 362.619C538.413 364.989 538.458 368.918 535.581 372.698C533.75 375.102 533.499 378.356 531.892 380.93C532.058 381.142 532.23 381.347 532.395 381.559C535.425 385.45 538.046 389.632 540.255 394.026C539.631 389.143 540.553 383.26 542.124 379.467C543.913 375.146 547.267 371.507 550.219 367.772C553.766 363.285 561.04 365.243 561.665 370.931C561.671 370.986 561.677 371.041 561.682 371.096C561.244 371.344 560.814 371.607 560.394 371.885C558 373.47 558.828 377.186 561.664 377.624L561.729 377.634C561.57 379.216 561.299 380.784 560.902 382.326C564.691 396.994 556.512 402.336 544.834 402.576C544.577 402.708 544.325 402.841 544.068 402.967C545.251 406.302 546.196 409.723 546.896 413.191C547.524 416.255 547.961 419.352 548.205 422.462C548.509 426.386 548.483 430.33 548.152 434.248L548.172 434.109C549.012 429.794 551.351 425.764 554.749 422.972C559.81 418.809 566.96 417.276 572.42 413.931C575.049 412.32 578.417 414.401 577.958 417.452L577.936 417.598C577.123 417.929 576.33 418.313 575.563 418.743C575.124 418.991 574.694 419.254 574.275 419.532C571.881 421.117 572.708 424.833 575.545 425.271L575.609 425.281C575.655 425.288 575.695 425.294 575.741 425.301C574.347 428.616 572.403 431.694 569.971 434.347C567.602 447.152 557.429 448.367 546.546 444.638H546.54C545.35 449.826 543.611 454.895 541.377 459.726H522.936C522.87 459.521 522.811 459.309 522.751 459.104C524.457 459.21 526.175 459.111 527.854 458.8C526.486 457.119 525.118 455.424 523.749 453.744C523.716 453.711 523.69 453.677 523.663 453.644C522.969 452.784 522.269 451.93 521.575 451.07L521.574 451.069C521.531 448.428 521.847 445.796 522.474 443.241L522.474 443.241L522.474 443.241H522.474Z" fill="#F2F2F2"/>
<path d="M0 459.781C0 460.457 0.542408 461 1.21785 461H576.639C577.314 461 577.857 460.457 577.857 459.781C577.857 459.105 577.314 458.562 576.639 458.562H1.21785C0.542408 458.562 0 459.105 0 459.781Z" fill="#CCCCCC"/>
<path d="M145.7 275.447H74.8633V273.398H145.7C151.854 273.398 156.86 268.385 156.86 262.224V214.271H158.907V262.224C158.907 269.515 152.983 275.447 145.7 275.447H145.7Z" fill="#B43C25"/>
<path d="M280.865 379.396H119.752V381.445H280.865V379.396Z" fill="#B43C25"/>
<path d="M383.085 261.745H297.03C292.386 261.745 288.607 257.962 288.607 253.313V168.205C288.607 163.556 292.386 159.773 297.03 159.773H383.085C387.729 159.773 391.507 163.556 391.507 168.205V253.313C391.507 257.962 387.729 261.745 383.085 261.745Z" fill="#9F9D9D"/>
<path d="M313.055 162.285C300.939 162.285 291.116 172.12 291.116 184.251V251.507C291.116 255.774 294.571 259.233 298.833 259.233H351.453C372.188 259.233 388.997 242.404 388.997 221.644V170.011C388.997 165.744 385.543 162.285 381.281 162.285L313.055 162.285Z" fill="white"/>
<path d="M363.105 187.018H316.829C315.946 187.018 315.228 186.299 315.228 185.415C315.228 184.531 315.946 183.812 316.829 183.812H363.105C363.988 183.812 364.706 184.531 364.706 185.415C364.706 186.299 363.988 187.018 363.105 187.018Z" fill="#E6E6E6"/>
<path d="M363.105 221.202H316.829C315.946 221.202 315.228 220.482 315.228 219.598C315.228 218.715 315.946 217.996 316.829 217.996H363.105C363.988 217.996 364.706 218.715 364.706 219.598C364.706 220.482 363.988 221.202 363.105 221.202Z" fill="#E6E6E6"/>
<path d="M381.897 204.121H298.037C297.154 204.121 296.436 203.402 296.436 202.518C296.436 201.634 297.154 200.915 298.037 200.915H381.897C382.78 200.915 383.498 201.634 383.498 202.518C383.498 203.402 382.78 204.121 381.897 204.121Z" fill="#E6E6E6"/>
<path d="M382.754 235.101H352.459C351.576 235.101 350.857 234.382 350.857 233.498C350.857 232.614 351.576 231.895 352.459 231.895H382.754C383.636 231.895 384.355 232.614 384.355 233.498C384.355 234.382 383.636 235.101 382.754 235.101Z" fill="#E6E6E6"/>
<path d="M202.328 431.317H133.994C130.307 431.317 127.307 428.314 127.307 424.622V357.041C127.307 353.348 130.307 350.345 133.994 350.345H202.328C206.016 350.345 209.016 353.348 209.016 357.041V424.622C209.016 428.314 206.016 431.317 202.328 431.317Z" fill="#9F9D9D"/>
<path d="M146.72 352.34C137.099 352.34 129.299 360.149 129.299 369.782V423.188C129.299 426.576 132.042 429.322 135.426 429.322H177.21C193.675 429.322 207.023 415.959 207.023 399.474V358.474C207.023 355.086 204.28 352.34 200.896 352.34L146.72 352.34Z" fill="white"/>
<path d="M186.463 371.979H149.716C149.015 371.979 148.444 371.408 148.444 370.706C148.444 370.004 149.015 369.433 149.716 369.433H186.463C187.164 369.433 187.734 370.004 187.734 370.706C187.734 371.408 187.164 371.979 186.463 371.979Z" fill="#9F9D9D"/>
<path d="M186.463 399.123H149.716C149.015 399.123 148.444 398.552 148.444 397.85C148.444 397.148 149.015 396.577 149.716 396.577H186.463C187.164 396.577 187.734 397.148 187.734 397.85C187.734 398.552 187.164 399.123 186.463 399.123Z" fill="#9F9D9D"/>
<path d="M201.385 385.56H134.794C134.093 385.56 133.522 384.989 133.522 384.287C133.522 383.585 134.093 383.014 134.794 383.014H201.385C202.086 383.014 202.656 383.585 202.656 384.287C202.656 384.989 202.086 385.56 201.385 385.56Z" fill="#9F9D9D"/>
<path d="M202.065 410.16H178.009C177.308 410.16 176.737 409.589 176.737 408.887C176.737 408.185 177.308 407.614 178.009 407.614H202.065C202.766 407.614 203.336 408.185 203.336 408.887C203.336 409.589 202.766 410.16 202.065 410.16Z" fill="#9F9D9D"/>
<path d="M154.567 213.754H104.031C101.304 213.754 99.085 211.532 99.085 208.802V158.822C99.085 156.092 101.304 153.871 104.031 153.871H154.567C157.294 153.871 159.513 156.092 159.513 158.822V208.802C159.513 211.532 157.294 213.754 154.567 213.754Z" fill="#9F9D9D"/>
<path d="M113.442 155.346C106.327 155.346 100.559 161.121 100.559 168.245V207.741C100.559 210.247 102.587 212.278 105.09 212.278H135.991C148.168 212.278 158.039 202.395 158.039 190.204V159.883C158.039 157.377 156.01 155.346 153.508 155.346L113.442 155.346Z" fill="white"/>
<path d="M142.833 169.87H115.657C115.139 169.87 114.717 169.448 114.717 168.929C114.717 168.41 115.139 167.988 115.657 167.988H142.833C143.351 167.988 143.773 168.41 143.773 168.929C143.773 169.448 143.351 169.87 142.833 169.87Z" fill="#9F9D9D"/>
<path d="M142.833 189.944H115.657C115.139 189.944 114.717 189.522 114.717 189.003C114.717 188.484 115.139 188.062 115.657 188.062H142.833C143.351 188.062 143.773 188.484 143.773 189.003C143.773 189.522 143.351 189.944 142.833 189.944Z" fill="#9F9D9D"/>
<path d="M153.869 179.914H104.622C104.104 179.914 103.682 179.492 103.682 178.973C103.682 178.453 104.104 178.031 104.622 178.031H153.869C154.387 178.031 154.809 178.453 154.809 178.973C154.809 179.492 154.387 179.914 153.869 179.914Z" fill="#9F9D9D"/>
<path d="M154.373 198.107H136.582C136.063 198.107 135.642 197.684 135.642 197.165C135.642 196.646 136.063 196.224 136.582 196.224H154.373C154.891 196.224 155.313 196.646 155.313 197.165C155.313 197.684 154.891 198.107 154.373 198.107Z" fill="#9F9D9D"/>
<path d="M302.048 276.77C307.7 276.77 312.282 272.183 312.282 266.524C312.282 260.866 307.7 256.278 302.048 256.278C296.396 256.278 291.814 260.866 291.814 266.524C291.814 272.183 296.396 276.77 302.048 276.77Z" fill="#B43C25"/>
<path d="M157.755 224.516C163.407 224.516 167.989 219.929 167.989 214.271C167.989 208.612 163.407 204.025 157.755 204.025C152.103 204.025 147.521 208.612 147.521 214.271C147.521 219.929 152.103 224.516 157.755 224.516Z" fill="#B43C25"/>
<path d="M206.876 364.884C212.528 364.884 217.11 360.296 217.11 354.638C217.11 348.979 212.528 344.392 206.876 344.392C201.224 344.392 196.643 348.979 196.643 354.638C196.643 360.296 201.224 364.884 206.876 364.884Z" fill="#B43C25"/>
<path d="M228.982 80.7909C236.026 80.7909 241.736 75.1942 241.736 68.2904C241.736 61.3865 236.026 55.7898 228.982 55.7898C221.938 55.7898 216.228 61.3865 216.228 68.2904C216.228 75.1942 221.938 80.7909 228.982 80.7909Z" fill="#BCBCBC"/>
<path d="M331.228 64.014H262.576C260.221 64.014 258.305 62.0955 258.305 59.7375C258.305 57.3795 260.221 55.4609 262.576 55.4609H331.228C333.583 55.4609 335.499 57.3795 335.499 59.7375C335.499 62.0955 333.583 64.014 331.228 64.014Z" fill="#BCBCBC"/>
<path d="M384.804 78.4883H262.576C260.221 78.4883 258.305 76.5698 258.305 74.2118C258.305 71.8538 260.221 69.9353 262.576 69.9353H384.804C387.159 69.9353 389.075 71.8538 389.075 74.2118C389.075 76.5698 387.159 78.4883 384.804 78.4883Z" fill="#BCBCBC"/>
<path d="M44.3716 133.329C48.9304 133.329 52.626 129.707 52.626 125.239C52.626 120.771 48.9304 117.148 44.3716 117.148C39.8128 117.148 36.1172 120.771 36.1172 125.239C36.1172 129.707 39.8128 133.329 44.3716 133.329Z" fill="#BCBCBC"/>
<path d="M110.543 122.471H66.113C64.5888 122.471 63.3486 121.229 63.3486 119.703C63.3486 118.177 64.5888 116.936 66.113 116.936H110.543C112.068 116.936 113.308 118.177 113.308 119.703C113.308 121.229 112.068 122.471 110.543 122.471H110.543Z" fill="#BCBCBC"/>
<path d="M145.217 131.839H66.113C64.5888 131.839 63.3486 130.597 63.3486 129.071C63.3486 127.545 64.5888 126.303 66.113 126.303H145.217C146.741 126.303 147.981 127.545 147.981 129.071C147.981 130.597 146.741 131.839 145.217 131.839Z" fill="#BCBCBC"/>
<path d="M292.023 421.236C296.582 421.236 300.277 417.613 300.277 413.145C300.277 408.677 296.582 405.055 292.023 405.055C287.464 405.055 283.769 408.677 283.769 413.145C283.769 417.613 287.464 421.236 292.023 421.236Z" fill="#BCBCBC"/>
<path d="M358.195 410.378H313.764C312.24 410.378 311 409.136 311 407.61C311 406.084 312.24 404.842 313.764 404.842H358.195C359.719 404.842 360.959 406.084 360.959 407.61C360.959 409.136 359.719 410.378 358.195 410.378Z" fill="#BCBCBC"/>
<path d="M392.868 419.745H313.764C312.24 419.745 311 418.504 311 416.978C311 415.452 312.24 414.21 313.764 414.21H392.868C394.392 414.21 395.633 415.452 395.633 416.978C395.633 418.504 394.392 419.745 392.868 419.745Z" fill="#BCBCBC"/>
<path d="M192.805 159.804H190.758V257.139H192.805V159.804Z" fill="#F7F7F7"/>
<path d="M191.782 263.286C195.173 263.286 197.922 260.534 197.922 257.139C197.922 253.744 195.173 250.991 191.782 250.991C188.391 250.991 185.642 253.744 185.642 257.139C185.642 260.534 188.391 263.286 191.782 263.286Z" fill="#F7F7F7"/>
<path d="M284.907 333.982C288.298 333.982 291.047 331.23 291.047 327.835C291.047 324.44 288.298 321.688 284.907 321.688C281.516 321.688 278.767 324.44 278.767 327.835C278.767 331.23 281.516 333.982 284.907 333.982Z" fill="#E6E6E6"/>
<path d="M119.124 249.967C122.515 249.967 125.264 247.215 125.264 243.82C125.264 240.424 122.515 237.672 119.124 237.672C115.732 237.672 112.983 240.424 112.983 243.82C112.983 247.215 115.732 249.967 119.124 249.967Z" fill="#F7F7F7"/>
<path d="M116.854 243.829L83.2754 244.847L83.3374 246.896L116.916 245.878L116.854 243.829Z" fill="#F7F7F7"/>
<path d="M334.857 351.369H283.939V327.835H285.986V349.32H334.857V351.369Z" fill="#F7F7F7"/>
<path d="M116.603 317.093C119.994 317.093 122.743 314.34 122.743 310.945C122.743 307.55 119.994 304.798 116.603 304.798C113.212 304.798 110.463 307.55 110.463 310.945C110.463 314.34 113.212 317.093 116.603 317.093Z" fill="#F7F7F7"/>
<path d="M165.948 334.479H115.03V310.945H117.077V332.43H165.948V334.479Z" fill="#F7F7F7"/>
<path d="M321.747 287.553H77.1836V289.602H321.747V287.553Z" fill="#F7F7F7"/>
</svg>
